<?xml version="1.0" encoding="UTF-8" standalone="no"?>
<!DOCTYPE svg PUBLIC "-//W3C//DTD SVG 1.1//EN" "http://www.w3.org/Graphics/SVG/1.1/DTD/svg11.dtd">
<svg width="100%" height="100%" viewBox="0 0 32 32" version="1.1" xmlns="http://www.w3.org/2000/svg" xmlns:xlink="http://www.w3.org/1999/xlink" xml:space="preserve" xmlns:serif="http://www.serif.com/" style="fill-rule:evenodd;clip-rule:evenodd;stroke-linejoin:round;stroke-miterlimit:2;">
    <path d="M9.016,13.38C9.016,13.776 9.063,14.094 9.136,14.328C9.219,14.562 9.329,14.818 9.475,15.094C9.532,15.183 9.553,15.266 9.553,15.339C9.553,15.448 9.485,15.553 9.35,15.662L8.678,16.105C8.595,16.168 8.501,16.199 8.402,16.204C8.293,16.204 8.188,16.152 8.084,16.053C7.938,15.902 7.813,15.735 7.699,15.553C7.579,15.35 7.47,15.142 7.371,14.928C6.538,15.907 5.496,16.397 4.241,16.397C3.345,16.397 2.632,16.142 2.111,15.631C1.59,15.115 1.325,14.438 1.325,13.584C1.325,12.683 1.643,11.943 2.294,11.391C2.945,10.839 3.804,10.563 4.903,10.563C5.262,10.563 5.637,10.594 6.028,10.646C6.424,10.698 6.83,10.787 7.252,10.88L7.252,10.104C7.252,9.297 7.085,8.729 6.752,8.401C6.413,8.073 5.841,7.911 5.018,7.911C4.648,7.911 4.263,7.953 3.867,8.046C3.476,8.145 3.091,8.26 2.721,8.411C2.596,8.468 2.471,8.51 2.346,8.552C2.294,8.568 2.237,8.578 2.179,8.583C2.028,8.583 1.955,8.474 1.955,8.25L1.955,7.729C1.955,7.562 1.976,7.432 2.028,7.359C2.106,7.26 2.21,7.182 2.325,7.135C2.7,6.942 3.143,6.781 3.664,6.656C4.211,6.515 4.768,6.448 5.325,6.453C6.596,6.453 7.518,6.739 8.117,7.318C8.7,7.891 8.997,8.761 8.997,9.933L8.997,13.381L9.016,13.38ZM4.698,15C5.047,15 5.412,14.937 5.792,14.807C6.177,14.682 6.516,14.448 6.802,14.13C6.974,13.927 7.104,13.703 7.167,13.448C7.23,13.193 7.271,12.88 7.271,12.521L7.271,12.073C6.948,11.995 6.625,11.932 6.292,11.891C5.964,11.849 5.631,11.828 5.292,11.828C4.578,11.828 4.058,11.969 3.709,12.255C3.355,12.541 3.188,12.948 3.188,13.479C3.188,13.979 3.313,14.349 3.579,14.604C3.834,14.87 4.209,15 4.699,15L4.698,15ZM13.245,16.151C13.052,16.151 12.922,16.12 12.839,16.042C12.756,15.979 12.678,15.828 12.615,15.631L10.115,7.402C10.068,7.261 10.032,7.121 10.021,6.975C10.021,6.803 10.104,6.709 10.271,6.709L11.318,6.709C11.521,6.709 11.657,6.74 11.729,6.813C11.818,6.876 11.88,7.027 11.943,7.23L13.735,14.277L15.396,7.23C15.448,7.016 15.511,6.876 15.594,6.813C15.724,6.735 15.87,6.698 16.021,6.709L16.87,6.709C17.073,6.709 17.214,6.74 17.297,6.813C17.38,6.876 17.458,7.027 17.5,7.23L19.182,14.36L21.021,7.23C21.089,7.016 21.162,6.876 21.235,6.813C21.36,6.735 21.506,6.698 21.652,6.709L22.642,6.709C22.814,6.709 22.908,6.792 22.908,6.975C22.908,7.027 22.898,7.079 22.887,7.147C22.871,7.236 22.845,7.324 22.814,7.413L20.246,15.637C20.183,15.851 20.111,15.991 20.022,16.054C19.902,16.132 19.762,16.169 19.621,16.158L18.704,16.158C18.501,16.158 18.365,16.127 18.277,16.054C18.194,15.981 18.121,15.84 18.079,15.627L16.428,8.762L14.787,15.616C14.735,15.83 14.672,15.97 14.584,16.043C14.501,16.116 14.35,16.147 14.157,16.147L13.245,16.151ZM26.917,16.438C26.365,16.438 25.813,16.37 25.282,16.245C24.751,16.12 24.334,15.979 24.058,15.818C23.886,15.724 23.772,15.62 23.73,15.521C23.688,15.427 23.662,15.328 23.662,15.224L23.662,14.682C23.662,14.458 23.751,14.349 23.907,14.349C23.97,14.349 24.037,14.359 24.1,14.38C24.163,14.406 24.261,14.448 24.366,14.489C24.731,14.65 25.121,14.775 25.538,14.859C25.965,14.948 26.377,14.989 26.804,14.989C27.476,14.989 27.997,14.869 28.356,14.635C28.71,14.421 28.924,14.036 28.913,13.625C28.918,13.349 28.814,13.083 28.627,12.88C28.434,12.682 28.07,12.5 27.549,12.328L26.007,11.849C25.231,11.604 24.653,11.245 24.304,10.766C23.96,10.323 23.773,9.782 23.768,9.219C23.768,8.771 23.867,8.38 24.06,8.037C24.253,7.698 24.508,7.402 24.826,7.167C25.144,6.922 25.508,6.74 25.93,6.615C26.357,6.485 26.805,6.433 27.274,6.433C27.508,6.433 27.753,6.443 27.988,6.475C28.233,6.506 28.457,6.548 28.681,6.595C28.889,6.647 29.092,6.699 29.285,6.762C29.478,6.825 29.629,6.892 29.733,6.955C29.858,7.018 29.967,7.111 30.051,7.221C30.124,7.325 30.155,7.45 30.15,7.575L30.15,8.075C30.15,8.299 30.061,8.414 29.905,8.414C29.759,8.398 29.624,8.357 29.499,8.289C28.858,8.003 28.16,7.862 27.457,7.872C26.848,7.872 26.368,7.966 26.04,8.169C25.707,8.372 25.54,8.679 25.54,9.117C25.54,9.414 25.644,9.669 25.858,9.872C26.072,10.075 26.467,10.278 27.03,10.461L28.54,10.935C29.306,11.18 29.863,11.524 30.191,11.961C30.519,12.393 30.681,12.893 30.681,13.451C30.681,13.904 30.582,14.321 30.405,14.685C30.212,15.044 29.957,15.362 29.629,15.623C29.296,15.889 28.905,16.076 28.447,16.217C27.968,16.363 27.468,16.441 26.921,16.441L26.917,16.438ZM28.932,21.609C25.427,24.198 20.343,25.567 15.968,25.567C9.838,25.567 4.312,23.301 0.14,19.531C-0.188,19.234 0.109,18.828 0.505,19.067C5.015,21.682 10.583,23.27 16.338,23.27C20.223,23.27 24.489,22.457 28.421,20.801C29.004,20.53 29.504,21.181 28.931,21.608L28.932,21.609ZM30.391,19.948C29.943,19.375 27.427,19.672 26.292,19.813C25.953,19.855 25.896,19.553 26.209,19.329C28.209,17.928 31.495,18.329 31.881,18.798C32.261,19.282 31.772,22.569 29.902,24.142C29.616,24.387 29.334,24.262 29.464,23.939C29.891,22.887 30.839,20.517 30.391,19.949L30.391,19.948Z" style="fill:white;fill-rule:nonzero;"/>
</svg>
