<?xml version="1.0" encoding="UTF-8" standalone="no"?>
<!DOCTYPE svg PUBLIC "-//W3C//DTD SVG 1.1//EN" "http://www.w3.org/Graphics/SVG/1.1/DTD/svg11.dtd">
<svg width="100%" height="100%" viewBox="0 0 131 28" version="1.1" xmlns="http://www.w3.org/2000/svg" xmlns:xlink="http://www.w3.org/1999/xlink" xml:space="preserve" xmlns:serif="http://www.serif.com/" style="fill-rule:evenodd;clip-rule:evenodd;stroke-linejoin:round;stroke-miterlimit:2;">
    <g id="Butlers_Logo.svg" transform="matrix(1.75,0,0,1.75,64.05,14)">
        <g transform="matrix(1,0,0,1,-36.6,-8)">
            <clipPath id="_clip1">
                <rect x="0" y="0" width="73.2" height="16"/>
            </clipPath>
            <g clip-path="url(#_clip1)">
                <g>
                    <g>
                        <path d="M71.8,0.6C72,0.6 72.1,0.6 72.2,0.7C72.4,0.8 72.4,0.9 72.4,1.1C72.4,1.2 72.3,1.3 72.2,1.4C72.1,1.4 72.1,1.5 72,1.5C72.1,1.5 72.2,1.6 72.3,1.7C72.4,1.8 72.4,1.9 72.4,1.9L72.4,2.2L72.1,2.2L72.1,2C72.1,1.8 72.1,1.7 72,1.6L71.5,1.6L71.5,2.2L71.2,2.2L71.2,0.6L71.8,0.6ZM72,0.9C71.9,0.9 71.8,0.8 71.7,0.8L71.5,0.8L71.5,1.4L72,1.4C72.1,1.4 72.2,1.3 72.2,1.2C72.2,1 72.1,0.9 72,0.9ZM72.8,2.4C72.5,2.7 72.2,2.8 71.8,2.8C71.4,2.8 71.1,2.7 70.8,2.4C70.5,2.1 70.4,1.8 70.4,1.4C70.4,1 70.5,0.7 70.8,0.4C71.1,0.1 71.4,-0 71.8,-0C72.2,-0 72.5,0.1 72.8,0.4C73.1,0.7 73.2,1 73.2,1.4C73.2,1.8 73.1,2.1 72.8,2.4ZM70.9,0.5C70.7,0.7 70.5,1 70.5,1.4C70.5,1.7 70.6,2 70.9,2.3C71.1,2.5 71.4,2.7 71.8,2.7C72.1,2.7 72.4,2.6 72.7,2.3C72.9,2 73,1.8 73,1.4C73,1.1 72.9,0.8 72.6,0.5C72.4,0.3 72.1,0.1 71.7,0.1C71.4,0.2 71.2,0.3 70.9,0.5Z" style="fill:white;fill-rule:nonzero;"/>
                    </g>
                    <path d="M20.7,0.1L28.1,0.1L28.1,2L25.5,2L25.5,15.9L23.3,15.9L23.3,2L20.7,2L20.7,0.1Z" style="fill:white;fill-rule:nonzero;"/>
                    <path d="M31.3,0.1L33.4,0.1L33.4,13.9L38.8,13.9L38.8,15.9L31.3,15.9L31.3,0.1Z" style="fill:white;fill-rule:nonzero;"/>
                    <path d="M5,7.4C6.4,7 6.9,5.5 6.9,4.3C6.9,1.5 5.6,0.1 2.8,0.1L0,0.1L0,15.9L3.5,15.9C5.7,15.9 7.4,14.1 7.4,11.6C7.3,9.4 6.4,7.8 5,7.4ZM2,1.8L3.4,1.8C3.7,1.8 5,2.8 5,4.2C5,5.3 4.1,6.5 3.4,6.5L2,6.6L2,1.8ZM3.3,14.1L2,14.1L2,8.3L3.3,8.3C3.7,8.3 5.2,9.2 5.2,11.5C5.2,13.4 3.8,14.1 3.3,14.1Z" style="fill:white;fill-rule:nonzero;"/>
                    <path d="M42,0.1L49.4,0.1L49.4,1.9L44,1.9L44,6.6L49.4,6.6L49.4,8.5L44,8.5L44,14L49.4,14L49.4,15.9L42,15.9L42,0.1Z" style="fill:white;fill-rule:nonzero;"/>
                    <path d="M70.2,3.3L68.2,4.1C68.2,3.1 67.6,1.9 66.7,1.9C65.4,1.9 64.4,3.8 66.1,5.6C67.1,6.7 69,8.4 69.7,9.4C70.3,10.3 70.4,11.1 70.4,12C70.4,14.3 68.7,16 66.7,16C65.5,16 62.9,15.3 62.9,12.3L64.9,11.8C64.9,13.3 65.8,14.1 66.7,14.1C67.6,14.1 68.2,13.2 68.2,12C68.2,10.2 64.5,7.5 63.9,6.4C63.6,5.8 63,4.8 63,3.7C63,1.4 65,0 66.7,0C69.5,0 70.1,2.5 70.2,3.3Z" style="fill:white;fill-rule:nonzero;"/>
                    <path d="M57.7,8.2C59.4,7.8 60.1,6.3 60.1,4.5C60.1,2.2 59,0.1 56.1,0.1L52.6,0.1L52.6,15.9L54.5,15.9L54.5,8.5L55.5,8.5L58.3,15.9L60.7,15.9L57.7,8.2ZM55.6,6.8L54.5,6.8L54.5,1.9L55.6,1.9C57.5,1.9 58.1,3.2 58.1,4.5C58.1,6.3 57,6.8 55.6,6.8Z" style="fill:white;fill-rule:nonzero;"/>
                    <path d="M13.8,16C11,16 10.1,14 10.1,11.2L10.1,0.1L12.1,0.1L12.1,11.2C12.1,12.5 12.5,14 13.8,14C15.1,14 15.5,12.5 15.5,11.2L15.5,0.1L17.5,0.1L17.5,11.2C17.5,14 16.6,16 13.8,16Z" style="fill:white;fill-rule:nonzero;"/>
                    <path d="M13.8,16C11,16 10.1,14 10.1,11.2L10.1,0.1L12.1,0.1L12.1,11.2C12.1,12.5 12.5,14 13.8,14C15.1,14 15.5,12.5 15.5,11.2L15.5,0.1L17.5,0.1L17.5,11.2C17.5,14 16.6,16 13.8,16Z" style="fill:white;fill-rule:nonzero;"/>
                    <path d="M70.2,3.3L68.2,4.1C68.2,3.1 67.6,1.9 66.7,1.9C65.4,1.9 64.4,3.8 66.1,5.6C67.1,6.7 69,8.4 69.7,9.4C70.3,10.3 70.4,11.1 70.4,12C70.4,14.3 68.7,16 66.7,16C65.5,16 62.9,15.3 62.9,12.3L64.9,11.8C64.9,13.3 65.8,14.1 66.7,14.1C67.6,14.1 68.2,13.2 68.2,12C68.2,10.2 64.5,7.5 63.9,6.4C63.6,5.8 63,4.8 63,3.7C63,1.4 65,0 66.7,0C69.5,0 70.1,2.5 70.2,3.3Z" style="fill:white;fill-rule:nonzero;"/>
                    <path d="M31.3,0.1L33.4,0.1L33.4,13.9L38.8,13.9L38.8,15.9L31.3,15.9L31.3,0.1Z" style="fill:white;fill-rule:nonzero;"/>
                    <path d="M20.7,0.1L28.1,0.1L28.1,2L25.5,2L25.5,15.9L23.3,15.9L23.3,2L20.7,2L20.7,0.1Z" style="fill:white;fill-rule:nonzero;"/>
                </g>
            </g>
        </g>
    </g>
</svg>
