<?xml version="1.0" encoding="UTF-8" standalone="no"?>
<!DOCTYPE svg PUBLIC "-//W3C//DTD SVG 1.1//EN" "http://www.w3.org/Graphics/SVG/1.1/DTD/svg11.dtd">
<svg width="100%" height="100%" viewBox="0 0 36 33" version="1.1" xmlns="http://www.w3.org/2000/svg" xmlns:xlink="http://www.w3.org/1999/xlink" xml:space="preserve" xmlns:serif="http://www.serif.com/" style="fill-rule:evenodd;clip-rule:evenodd;stroke-linejoin:round;stroke-miterlimit:2;">
    <g transform="matrix(2.08228,0,0,2.08228,16.5911,-0.108228)">
        <path d="M5,7.4C6.4,7 6.9,5.5 6.9,4.3C6.9,1.5 5.6,0.1 2.8,0.1L0,0.1L0,15.9L3.5,15.9C5.7,15.9 7.4,14.1 7.4,11.6C7.3,9.4 6.4,7.8 5,7.4ZM2,1.8L3.4,1.8C3.7,1.8 5,2.8 5,4.2C5,5.3 4.1,6.5 3.4,6.5L2,6.6L2,1.8ZM3.3,14.1L2,14.1L2,8.3L3.3,8.3C3.7,8.3 5.2,9.2 5.2,11.5C5.2,13.4 3.8,14.1 3.3,14.1Z" style="fill:rgb(255,162,27);fill-rule:nonzero;"/>
    </g>
</svg>
