<?xml version="1.0" encoding="UTF-8" standalone="no"?>
<!DOCTYPE svg PUBLIC "-//W3C//DTD SVG 1.1//EN" "http://www.w3.org/Graphics/SVG/1.1/DTD/svg11.dtd">
<svg width="100%" height="100%" viewBox="0 0 144 33" version="1.1" xmlns="http://www.w3.org/2000/svg" xmlns:xlink="http://www.w3.org/1999/xlink" xml:space="preserve" xmlns:serif="http://www.serif.com/" style="fill-rule:evenodd;clip-rule:evenodd;stroke-linejoin:round;stroke-miterlimit:2;">
    <g id="Closed-Logo.svg" transform="matrix(1.23269,0,0,1.23269,56.4217,16.5)">
        <g transform="matrix(1,0,0,1,-46.89,-13.97)">
            <g id="g178" transform="matrix(1.25,0,0,-1.25,82.8427,6.22883)">
                <g id="Ebene-1" serif:id="Ebene 1">
                    <g id="g1781" serif:id="g178">
                        <path id="path180" d="M0,0L0,-2.166C0.875,-2.232 2.382,-2.376 2.382,-4.183L2.382,-8.421C2.382,-10.229 0.875,-10.372 0,-10.438L0,-12.604C0.57,-12.604 4.465,-12.758 4.465,-8.421L4.465,-4.183C4.465,0.154 0.57,0 0,0ZM-65.498,-16.679L7.928,-16.679L7.928,-14.513L-65.498,-14.513L-65.498,-16.679ZM-65.498,1.909L7.928,1.909L7.928,4.074L-65.498,4.074L-65.498,1.909ZM-52.331,-8.125L-54.405,-8.125L-54.405,-8.571C-54.405,-10.095 -55.638,-10.537 -56.067,-10.588L-56.067,-12.604C-55.396,-12.604 -52.331,-11.785 -52.331,-8.263L-52.331,-8.125ZM-52.331,-4.342C-52.331,-0.819 -55.396,0.001 -56.067,0.001L-56.067,-2.016C-55.638,-2.067 -54.405,-2.51 -54.405,-4.033L-54.405,-4.479L-52.331,-4.479L-52.331,-4.342ZM-59.014,-4.033C-59.014,-2.51 -57.78,-2.067 -57.352,-2.016L-57.352,0.001C-58.022,0.001 -61.089,-0.819 -61.089,-4.342L-61.089,-8.263C-61.089,-11.785 -58.022,-12.604 -57.352,-12.604L-57.352,-10.588C-57.78,-10.537 -59.014,-10.095 -59.014,-8.571L-59.014,-4.033ZM-21.095,-3.856L-18.73,-3.856C-18.81,-2.598 -19.214,0.001 -22.908,0.001L-23.824,0.001L-23.824,-2.078L-22.908,-2.078C-21.189,-2.078 -21.212,-3.035 -21.095,-3.856ZM-24.91,-8.748L-27.276,-8.748C-27.195,-10.005 -26.793,-12.604 -23.097,-12.604L-22.182,-12.604L-22.182,-10.525L-23.097,-10.525C-24.818,-10.525 -24.794,-9.569 -24.91,-8.748ZM-20.09,-6.16C-20.509,-5.931 -21.41,-5.671 -22.274,-5.41C-22.274,-5.41 -23.403,-5.045 -23.758,-4.89C-24.72,-4.474 -24.94,-4.184 -24.94,-3.564L-24.94,-0.297C-24.94,-0.297 -27.231,-0.636 -27.277,-4.004C-27.251,-5.292 -26.537,-6.101 -25.904,-6.445C-25.486,-6.672 -24.585,-6.932 -23.72,-7.193C-23.72,-7.193 -22.591,-7.558 -22.236,-7.713C-21.275,-8.131 -21.054,-8.421 -21.054,-9.04L-21.054,-12.307C-21.054,-12.307 -18.762,-11.968 -18.717,-8.599C-18.743,-7.311 -19.457,-6.504 -20.09,-6.16ZM-3.251,-12.604L-1.08,-12.604L-1.08,0L-3.251,0L-3.251,-12.604ZM-9.655,-5.017L-12.888,-5.017L-12.888,0.001L-15.059,0.001L-15.059,-12.604L-12.888,-12.604L-12.888,-7.182L-9.655,-7.182L-9.655,-5.017ZM-11.808,-12.604L-6.172,-12.604L-6.172,-10.438L-11.808,-10.438L-11.808,-12.604ZM-11.808,-2.165L-6.172,-2.165L-6.172,-0L-11.808,-0L-11.808,-2.165ZM-46.201,-12.604L-40.565,-12.604L-40.565,-10.438L-46.201,-10.438L-46.201,-12.604ZM-49.49,-12.604L-47.32,-12.604L-47.32,0L-49.49,0L-49.49,-12.604ZM-32.313,-8.571C-32.313,-10.095 -33.547,-10.537 -33.975,-10.588L-33.975,-12.604C-33.304,-12.604 -30.238,-11.785 -30.238,-8.263L-30.238,-4.342C-30.238,-0.819 -33.304,0.001 -33.975,0.001L-33.975,-2.016C-33.547,-2.067 -32.313,-2.51 -32.313,-4.033L-32.313,-8.571ZM-36.923,-4.033C-36.923,-2.51 -35.688,-2.067 -35.26,-2.016L-35.26,0.001C-35.931,0.001 -38.997,-0.819 -38.997,-4.342L-38.997,-8.263C-38.997,-11.785 -35.931,-12.604 -35.26,-12.604L-35.26,-10.588C-35.688,-10.537 -36.923,-10.095 -36.923,-8.571L-36.923,-4.033" style="fill:white;fill-rule:nonzero;"/>
                    </g>
                </g>
            </g>
        </g>
    </g>
</svg>
