<?xml version="1.0" encoding="UTF-8" standalone="no"?>
<!DOCTYPE svg PUBLIC "-//W3C//DTD SVG 1.1//EN" "http://www.w3.org/Graphics/SVG/1.1/DTD/svg11.dtd">
<svg width="100%" height="100%" viewBox="0 0 36 33" version="1.1" xmlns="http://www.w3.org/2000/svg" xmlns:xlink="http://www.w3.org/1999/xlink" xml:space="preserve" xmlns:serif="http://www.serif.com/" style="fill-rule:evenodd;clip-rule:evenodd;stroke-linejoin:round;stroke-miterlimit:2;">
    <g id="channels4_profile.svg" transform="matrix(0.0466667,0,0,0.0466667,18.3716,16.8791)">
        <g transform="matrix(1,0,0,1,-450,-450)">
            <g transform="matrix(0.1,0,0,-0.1,0,900)">
                <path d="M6188,7824C6091,7809 5948,7764 5868,7724C5576,7576 5368,7300 5314,6988C5292,6865 5300,6640 5329,6523C5344,6461 5397,6320 5416,6292C5417,6291 5471,6324 5536,6366C5602,6408 5674,6454 5698,6469C5727,6487 5738,6500 5734,6510C5731,6518 5719,6566 5707,6615C5675,6753 5678,6979 5714,7115C5813,7491 6071,7708 6394,7687C6630,7671 6825,7549 6941,7342C6957,7314 6970,7302 6980,7306C6992,7310 7220,7452 7239,7467C7242,7469 7217,7498 7184,7531C6948,7770 6564,7883 6188,7824Z" style="fill:white;fill-rule:nonzero;"/>
                <path d="M2381,7809C2242,7790 2070,7725 1943,7644C1872,7599 1737,7469 1685,7395C1621,7305 1561,7178 1532,7071C1509,6986 1506,6956 1506,6805C1506,6662 1509,6621 1528,6547C1548,6466 1601,6327 1620,6307C1626,6300 1905,6472 1933,6499C1937,6503 1931,6544 1920,6591C1890,6710 1883,6916 1904,7037C1938,7232 2007,7378 2120,7490C2239,7609 2363,7660 2531,7660C2722,7660 2879,7600 2991,7483C3062,7409 3118,7317 3146,7230C3155,7200 3166,7171 3171,7166C3175,7162 3207,7158 3242,7158L3305,7158L3308,7469L3310,7780L3173,7780L3157,7740C3138,7692 3108,7681 3047,7703C3024,7711 2967,7732 2920,7749C2873,7765 2801,7786 2760,7795C2666,7815 2478,7822 2381,7809Z" style="fill:white;fill-rule:nonzero;"/>
                <path d="M7230,7269C7178,7235 7131,7204 7126,7200C7121,7195 7129,7159 7143,7118C7222,6890 7219,6620 7136,6400C7040,6142 6854,5969 6605,5904C6505,5878 6333,5880 6215,5909C6016,5957 5828,6090 5733,6251C5723,6267 5712,6280 5708,6280C5703,6280 5533,6171 5511,6154C5502,6147 5593,6052 5662,5996C5799,5886 5990,5801 6170,5769C6286,5749 6516,5753 6631,5778C7099,5876 7430,6240 7469,6697C7480,6827 7467,6985 7435,7094C7407,7189 7347,7330 7333,7330C7329,7330 7282,7302 7230,7269Z" style="fill:white;fill-rule:nonzero;"/>
                <path d="M3644,6806C3641,6799 3640,6768 3642,6739L3645,6685L3725,6680C3819,6673 3856,6658 3887,6611C3910,6577 3910,6576 3910,6204C3910,5998 3913,5830 3916,5830C3919,5830 3995,5877 4085,5935L4249,6041L4252,6308C4255,6552 4257,6578 4275,6607C4305,6657 4350,6673 4468,6678L4570,6682L4570,6820L4110,6820C3729,6820 3648,6818 3644,6806Z" style="fill:white;fill-rule:nonzero;"/>
                <path d="M3206,6358C3143,6130 3001,5988 2790,5944C2734,5932 2677,5929 2565,5933C2394,5938 2337,5951 2212,6011C2118,6056 2028,6137 1965,6233C1944,6264 1926,6290 1924,6290C1922,6290 1875,6260 1819,6224L1718,6158L1781,6093C1939,5933 2146,5834 2393,5801C2605,5772 2916,5809 3190,5896C3294,5929 3300,5932 3300,5958C3300,5973 3307,6068 3315,6170C3323,6272 3330,6370 3330,6388L3330,6420L3223,6420L3206,6358Z" style="fill:white;fill-rule:nonzero;"/>
                <path d="M4028,5712L3910,5636L3910,5377C3910,5091 3906,5070 3850,5036C3823,5021 3797,5016 3675,5006C3646,5004 3645,5002 3642,4947L3639,4890L5220,4890L5220,4915C5220,4951 5249,5367 5255,5423L5261,5470L5143,5470L5136,5428C5114,5288 5046,5151 4967,5088C4877,5017 4823,5008 4519,5012C4289,5015 4251,5017 4223,5033C4155,5070 4156,5068 4150,5446L4145,5788L4028,5712Z" style="fill:white;fill-rule:nonzero;"/>
                <path d="M3600,4290L3600,4163L3679,4157C3768,4151 3820,4131 3847,4092C3863,4068 3865,4037 3868,3838C3870,3712 3875,3610 3879,3610C3883,3610 3905,3623 3926,3638C3947,3653 4020,3701 4088,3744L4210,3823L4210,4162L4508,4158C4792,4154 4808,4153 4864,4131C4971,4088 5039,3996 5084,3830C5094,3794 5104,3759 5106,3753C5108,3744 5131,3740 5175,3740L5240,3740L5240,3843C5240,3899 5237,4023 5233,4118L5227,4290L3600,4290Z" style="fill:white;fill-rule:nonzero;"/>
                <path d="M4805,3623C4785,3508 4757,3458 4695,3426C4658,3406 4636,3405 4383,3402L4110,3399L4108,3452C4108,3481 4108,3517 4109,3533C4110,3548 4107,3560 4101,3560C4096,3560 4041,3527 3980,3488L3870,3415L3870,2995C3870,2681 3867,2569 3857,2550C3838,2511 3779,2488 3684,2482L3600,2477L3600,2360L4418,2362L5235,2365L5252,2585C5261,2706 5271,2838 5274,2878L5281,2951L5224,2948L5168,2945L5144,2850C5087,2622 4993,2521 4808,2490C4766,2482 4646,2480 4473,2482C4188,2486 4145,2492 4121,2538C4113,2553 4105,3095 4110,3268C4110,3277 4169,3280 4373,3280C4606,3280 4640,3277 4675,3261C4747,3229 4783,3166 4805,3038L4811,3000L4920,3000L4920,3660L4811,3660L4805,3623Z" style="fill:white;fill-rule:nonzero;"/>
                <path d="M2285,3179C2048,3157 1836,3023 1744,2836C1709,2764 1705,2749 1702,2661C1691,2390 1820,2245 2180,2122L2295,2083L2470,2196C2566,2259 2646,2313 2647,2317C2649,2322 2559,2354 2447,2389C2212,2463 2120,2502 2060,2556C1956,2650 1952,2792 2050,2904C2167,3037 2470,3060 2697,2954C2815,2898 2945,2738 2991,2590L3008,2535L3150,2529L3150,3160L3085,3160C3031,3160 3018,3157 3014,3143C2989,3059 2962,3054 2802,3109C2625,3170 2446,3194 2285,3179Z" style="fill:white;fill-rule:nonzero;"/>
                <path d="M5613,3131L5609,3003L5687,2996C5730,2992 5784,2980 5808,2970C5878,2939 5880,2928 5880,2570C5880,2400 5883,2260 5888,2260C5892,2260 5967,2307 6055,2364L6215,2468L6218,2729L6220,2990L6373,2990C6588,2990 6643,2976 6796,2885L6827,2866L6928,2931C6984,2966 7030,2998 7030,3002C7030,3013 6881,3071 6781,3098L6685,3124L6149,3128L5613,3131Z" style="fill:white;fill-rule:nonzero;"/>
                <path d="M7087,2846C7045,2817 7007,2790 7004,2787C7000,2784 7013,2762 7032,2738C7083,2674 7106,2634 7144,2534C7199,2391 7213,2294 7207,2095C7201,1896 7184,1814 7116,1675C7065,1571 6994,1487 6909,1429C6780,1341 6687,1320 6443,1320C6242,1321 6183,1333 6146,1383C6126,1411 6125,1424 6122,1811C6120,2030 6116,2210 6113,2210C6109,2210 6056,2177 5994,2138L5881,2066L5878,1734C5875,1418 5874,1401 5855,1380C5821,1343 5779,1327 5695,1321L5615,1315L5615,1205L6135,1202C6697,1200 6748,1203 6899,1254C7166,1344 7382,1584 7453,1870C7516,2123 7494,2405 7395,2614C7341,2726 7204,2902 7172,2899C7168,2899 7130,2875 7087,2846Z" style="fill:white;fill-rule:nonzero;"/>
                <path d="M2739,2184C2676,2143 2624,2106 2622,2102C2621,2097 2642,2088 2670,2081C2740,2063 2896,1986 2947,1944C3005,1897 3040,1834 3050,1758C3078,1567 2971,1406 2773,1342C2591,1282 2300,1298 2123,1376C1971,1442 1855,1570 1799,1733L1775,1800L1670,1800L1670,1189L1732,1192C1792,1195 1794,1196 1802,1226C1820,1296 1878,1311 1982,1272C2411,1111 2870,1147 3100,1358C3215,1464 3268,1585 3269,1745C3271,1958 3177,2101 2964,2209C2853,2265 2867,2267 2739,2184Z" style="fill:white;fill-rule:nonzero;"/>
            </g>
        </g>
    </g>
</svg>
