<?xml version="1.0" encoding="UTF-8" standalone="no"?>
<!DOCTYPE svg PUBLIC "-//W3C//DTD SVG 1.1//EN" "http://www.w3.org/Graphics/SVG/1.1/DTD/svg11.dtd">
<svg width="100%" height="100%" viewBox="0 0 36 33" version="1.1" xmlns="http://www.w3.org/2000/svg" xmlns:xlink="http://www.w3.org/1999/xlink" xml:space="preserve" xmlns:serif="http://www.serif.com/" style="fill-rule:evenodd;clip-rule:evenodd;stroke-linejoin:round;stroke-miterlimit:2;">
    <g transform="matrix(1,0,0,1,-1.5,0)">
        <g transform="matrix(0.124153,0,0,0.124153,-96.4097,-49.5621)">
            <path d="M1066.5,532.1C1066.5,605.7 1007,665 933.6,665C860.2,665 800.7,605.5 800.7,532.1C800.7,458.7 860.2,399.2 933.6,399.2C1007,399.2 1066.5,458.6 1066.5,532.1Z" style="fill:rgb(244,83,52);fill-rule:nonzero;"/>
        </g>
        <g transform="matrix(0.124153,0,0,0.124153,-96.4097,-49.5621)">
            <path d="M948.4,588.8C944.4,587.2 939.7,586.2 935.5,586C928.5,585.8 922.1,586.5 915.3,587.9C908.5,589.3 901.7,590.7 894.9,591.9C888.3,593.1 881.8,595.2 875.2,595.6C863.7,596.5 866.5,595.4 873.1,582.9C879.7,570.7 888.3,555.3 896.3,540.3C906.8,520.6 914.1,499.5 903.6,477.5C889.3,447 846.7,469.1 832.1,487.6C826.5,494.6 847.8,497.2 852.7,492.5C863.2,478.4 881.5,468.8 883.9,490.6C884.8,499.5 882,509.1 878.5,517.3C869.6,537.9 857.4,555.7 846.2,574.5C838.7,586.7 834.3,601 849.9,606.1C854.8,607.7 860,608.7 865.1,608.4C871.2,608.2 877,606.8 882.9,605.6C891.8,603.7 900.7,602.1 909.6,600.4C914.3,599.7 918.7,598.8 923.4,598.3C929.3,597.8 935.3,597.8 941.2,598.5C943.5,598.7 945.9,599.4 948.2,599.7C950.3,599.9 955.2,596.4 955.5,594.1C955.9,591.6 950.5,589.5 948.4,588.8Z" style="fill:white;fill-rule:nonzero;"/>
        </g>
        <g transform="matrix(0.124153,0,0,0.124153,-96.4097,-49.5621)">
            <path d="M1041.9,520.9C1037.4,520.4 1032.8,520.9 1028.5,521.6C1027.1,521.8 1025.5,522.1 1024,522.3C1021.2,522.8 1018.4,523.5 1015.3,524.2C1017.6,511.5 1020.7,497.7 1023.3,486.5C1025.2,477.8 1024.2,466.6 1021,461C1020.1,459.4 1014.9,458 1012.1,458.9C1010,459.6 1006.7,462.9 1005.1,465.7C1003,469.2 1000.4,475.1 999.5,477.4C993.9,494.7 991.1,510.4 987.3,528.5C987.1,529.2 987.1,530.1 986.8,530.8C985.2,531.3 983.3,531.5 981.6,532C975.7,533.2 969.9,535.3 963.8,536C961.2,536.2 957.9,537.4 956.5,534.8C955.6,532.9 956.7,529.2 957.2,527.3C958.6,521.7 960.2,516.1 962.4,510.4C971.5,486.3 974.3,482 976.7,467.3C977.2,464 977.2,460.5 975.8,457.2C974.6,454.4 972.8,453.9 970.4,453.9C967.8,453.9 964.3,454.1 962,455.3C961.3,455.8 960.4,456.2 959.7,456.7C958.1,458.1 956.7,459.7 955.2,461.4C954.7,461.9 954.3,462.6 954,463.3C951.2,468 948.1,472.4 946,477.4C943.9,482.6 941.8,487.5 939.7,492.9C936,503 932.7,513.5 930.1,524.1C929.6,525.7 929.4,527.4 928.9,529.3C926.1,541.2 925.9,552.5 945.1,550.9C958.5,549.7 971.6,546.2 984.5,542.5L983.1,551.6C982.6,555.6 980.1,574.3 979.8,578.3C979.3,583.2 978.9,588.6 979.1,593.8C979.1,595.7 979.1,597.3 979.3,599.2C979.5,600.4 979.8,602.2 980.7,603.4C982.1,605 985.2,605.5 988,605C991.3,604.3 993.2,604.1 995.7,601.7C997.8,599.8 999.2,596.5 1000.6,593.7C1002.5,589.5 1003.9,585.3 1005.1,579.4C1007,570.5 1010.7,547.3 1012.1,538.4C1012.3,537.5 1012.6,536.3 1012.6,535.1C1014.9,534.6 1017.3,533.9 1019.6,533.5C1024.8,532.3 1029.9,531.6 1035.1,531.4C1038.1,531.2 1041.4,531.2 1044.5,531.2C1046.1,531.2 1053.4,532.6 1053.2,528.9C1053.4,522.8 1046.1,521.4 1041.9,520.9Z" style="fill:white;fill-rule:nonzero;"/>
        </g>
    </g>
</svg>
