<?xml version="1.0" encoding="UTF-8" standalone="no"?>
<!DOCTYPE svg PUBLIC "-//W3C//DTD SVG 1.1//EN" "http://www.w3.org/Graphics/SVG/1.1/DTD/svg11.dtd">
<svg width="100%" height="100%" viewBox="0 0 144 33" version="1.1" xmlns="http://www.w3.org/2000/svg" xmlns:xlink="http://www.w3.org/1999/xlink" xml:space="preserve" xmlns:serif="http://www.serif.com/" style="fill-rule:evenodd;clip-rule:evenodd;stroke-linejoin:round;stroke-miterlimit:2;">
    <g transform="matrix(1.17857,0,0,1.17857,-30.886,-1.26883e-15)">
        <g transform="matrix(0.107726,0,0,0.107726,3.17738,-38.9086)">
            <path d="M948.4,588.8C944.4,587.2 939.7,586.2 935.5,586C928.5,585.8 922.1,586.5 915.3,587.9C908.5,589.3 901.7,590.7 894.9,591.9C888.3,593.1 881.8,595.2 875.2,595.6C863.7,596.5 866.5,595.4 873.1,582.9C879.7,570.7 888.3,555.3 896.3,540.3C906.8,520.6 914.1,499.5 903.6,477.5C889.3,447 846.7,469.1 832.1,487.6C826.5,494.6 847.8,497.2 852.7,492.5C863.2,478.4 881.5,468.8 883.9,490.6C884.8,499.5 882,509.1 878.5,517.3C869.6,537.9 857.4,555.7 846.2,574.5C838.7,586.7 834.3,601 849.9,606.1C854.8,607.7 860,608.7 865.1,608.4C871.2,608.2 877,606.8 882.9,605.6C891.8,603.7 900.7,602.1 909.6,600.4C914.3,599.7 918.7,598.8 923.4,598.3C929.3,597.8 935.3,597.8 941.2,598.5C943.5,598.7 945.9,599.4 948.2,599.7C950.3,599.9 955.2,596.4 955.5,594.1C955.9,591.6 950.5,589.5 948.4,588.8Z" style="fill:white;fill-rule:nonzero;"/>
        </g>
        <g transform="matrix(0.107726,0,0,0.107726,3.17738,-38.9086)">
            <path d="M1041.9,520.9C1037.4,520.4 1032.8,520.9 1028.5,521.6C1027.1,521.8 1025.5,522.1 1024,522.3C1021.2,522.8 1018.4,523.5 1015.3,524.2C1017.6,511.5 1020.7,497.7 1023.3,486.5C1025.2,477.8 1024.2,466.6 1021,461C1020.1,459.4 1014.9,458 1012.1,458.9C1010,459.6 1006.7,462.9 1005.1,465.7C1003,469.2 1000.4,475.1 999.5,477.4C993.9,494.7 991.1,510.4 987.3,528.5C987.1,529.2 987.1,530.1 986.8,530.8C985.2,531.3 983.3,531.5 981.6,532C975.7,533.2 969.9,535.3 963.8,536C961.2,536.2 957.9,537.4 956.5,534.8C955.6,532.9 956.7,529.2 957.2,527.3C958.6,521.7 960.2,516.1 962.4,510.4C971.5,486.3 974.3,482 976.7,467.3C977.2,464 977.2,460.5 975.8,457.2C974.6,454.4 972.8,453.9 970.4,453.9C967.8,453.9 964.3,454.1 962,455.3C961.3,455.8 960.4,456.2 959.7,456.7C958.1,458.1 956.7,459.7 955.2,461.4C954.7,461.9 954.3,462.6 954,463.3C951.2,468 948.1,472.4 946,477.4C943.9,482.6 941.8,487.5 939.7,492.9C936,503 932.7,513.5 930.1,524.1C929.6,525.7 929.4,527.4 928.9,529.3C926.1,541.2 925.9,552.5 945.1,550.9C958.5,549.7 971.6,546.2 984.5,542.5L983.1,551.6C982.6,555.6 980.1,574.3 979.8,578.3C979.3,583.2 978.9,588.6 979.1,593.8C979.1,595.7 979.1,597.3 979.3,599.2C979.5,600.4 979.8,602.2 980.7,603.4C982.1,605 985.2,605.5 988,605C991.3,604.3 993.2,604.1 995.7,601.7C997.8,599.8 999.2,596.5 1000.6,593.7C1002.5,589.5 1003.9,585.3 1005.1,579.4C1007,570.5 1010.7,547.3 1012.1,538.4C1012.3,537.5 1012.6,536.3 1012.6,535.1C1014.9,534.6 1017.3,533.9 1019.6,533.5C1024.8,532.3 1029.9,531.6 1035.1,531.4C1038.1,531.2 1041.4,531.2 1044.5,531.2C1046.1,531.2 1053.4,532.6 1053.2,528.9C1053.4,522.8 1046.1,521.4 1041.9,520.9Z" style="fill:white;fill-rule:nonzero;"/>
        </g>
        <g transform="matrix(0.107726,0,0,0.107726,3.17738,-38.9086)">
            <path d="M778,576C777.8,576.2 777.5,576.2 777.5,576.5C768.4,584.7 739.8,604.6 730.6,585.2C726.9,577.2 727.3,566.7 727.3,558C727.3,550.7 728,543 728.5,535.3C741.6,535.1 760.4,523.1 760.6,493.8C760.6,475.3 742.8,474.1 738.1,474.1C700.4,473.9 692.4,530.6 692.2,556.3L692.2,558.9C682.6,576.5 672,592.2 662.2,592.4C657.3,592.6 655.2,584.7 655.2,575.1C655.2,558.2 660.8,539.5 663.4,521.7C666,503.9 663.4,491.9 649.6,491.2C616.8,489.6 598.3,534.5 596.6,537.1C597.3,513.4 590.3,499.4 568.5,498.9C553.3,498.4 537.8,522.1 537.8,522.1L537.8,517.2C538,507.1 536.9,484.2 518.1,484.2L518,484.2C513.1,484.2 504.4,488.9 496.4,493.3C484.7,499.9 459.8,506.9 458.4,504.8C448.1,489.6 434,486.1 424.7,484.9C404.8,482.6 388.9,490.5 387.7,501.3C387.5,504.8 388.9,507.9 390.3,509.7C385.6,512.7 381.6,517.9 377.9,524.5C373.7,531.3 369.9,544.2 367.8,550.7C365.5,557.7 362.9,563.4 358.9,570.4C353.7,580 345.1,594.5 337.1,598.5C334.5,599.7 330.1,601.3 328,598C325.7,594.3 327.3,583.2 328.7,577.6C330.6,570.1 333.4,557.4 335.3,550C337.6,540.6 339.5,529.1 340.9,520.7C342.5,508.8 341.6,495.6 330.6,489.3C315.6,480.6 297.1,484.6 284.2,495.4C276,502.2 270.8,510.6 264.8,521.4C262.9,524.7 259.2,532.6 259.2,532.6C259.2,532.6 262.2,510.8 262.9,505C267.8,468 272.3,431.9 280,395.3C281.6,387.1 284.5,380.3 284.2,371.6C284,366.9 283,363.9 281.2,362.5C274.9,356.9 260.1,370.5 255.7,377.7C245.9,394.1 241.2,413.5 237,432.1C224.8,487.4 214,602.2 213.8,604.5C213.6,610.1 214.3,620.2 223.4,620.9C228.3,621.1 231.1,621.1 238.6,618.1C246.1,615.1 250.3,608.5 253.8,599.8C257.8,590.4 262.7,577.5 266.7,567C270.7,556.5 273,549 277.7,540.3C281.4,533.3 287.8,524.8 296,522.3C299,521.4 305.4,520.2 304.2,525.3C303.7,527.4 296.7,552.7 295.1,560C293.9,564.9 292.8,570.8 291.8,575.7C287.1,601.9 304.5,628 333.7,619C347.5,614.8 358.1,605.4 366,594.2C367.2,592.6 368.3,590.7 369.5,588.8C376.8,612.5 398.1,620.2 408.6,620.7C426.9,621.6 465.8,609 466,539.6C466,534.7 465.3,526.9 464.8,523C464.8,523.5 480,521.1 491.3,517.4C494.3,516.5 496.9,515.3 499.3,514.1C493.4,541.3 492.3,580.9 491.8,595.4C491.3,617.2 496,620.7 503.5,620.9C507,620.9 511.7,620.2 511.7,620.2C529,615.3 529,602.9 529,602.9C530.2,544.8 560.6,515.3 567.4,515.5C569.5,515.5 570,518.1 570.2,521.8C570.4,534.7 567.9,547.6 561.8,570.3C558.5,582.2 556.4,591.6 556.4,597.5C555.9,616.7 567.4,618.1 569.5,618.4L569.7,618.4C580.9,618.6 583.1,608.3 583.1,608.3C607.2,532.4 628.6,522.3 628.6,522.3C624.4,541.7 619.7,562.1 619.2,579.2C618.7,601.7 627.2,621.6 652.9,620.4C668.1,619.7 682.9,602.8 694.4,585C702.1,618 723.7,621.1 732.6,621.1C748.1,621.1 763.1,614.1 773.4,602.8C776.4,599.5 779.5,596 782.1,592.5C784.2,589.7 789.4,583.6 789.6,580.1C790.2,572.2 782,572.9 778,576ZM733.5,493.9C734.9,491.3 738.4,488.5 741,488.5C743.1,488.5 744.7,490.1 744.7,494.6C744.5,515.9 732.3,518.3 730.2,518.7C731.4,509.6 730.5,500.5 733.5,493.9ZM434.1,551.6C432.7,576.9 427.1,602.4 415.8,602C406.2,601.8 401.5,583.7 401.5,565.9C401.5,544.8 410.4,519 410.4,519C410.4,519 417.4,520.6 420.9,521.1C424.2,521.6 431.7,522 431.7,522C433.6,529.3 434.8,538.9 434.1,551.6Z" style="fill:white;fill-rule:nonzero;"/>
        </g>
    </g>
</svg>
