<?xml version="1.0" encoding="UTF-8" standalone="no"?>
<!DOCTYPE svg PUBLIC "-//W3C//DTD SVG 1.1//EN" "http://www.w3.org/Graphics/SVG/1.1/DTD/svg11.dtd">
<svg width="100%" height="100%" viewBox="0 0 36 33" version="1.1" xmlns="http://www.w3.org/2000/svg" xmlns:xlink="http://www.w3.org/1999/xlink" xml:space="preserve" xmlns:serif="http://www.serif.com/" style="fill-rule:evenodd;clip-rule:evenodd;stroke-linejoin:round;stroke-miterlimit:2;">
    <g transform="matrix(0.0656977,0,0,0.0656977,-129.658,-0.75747)">
        <path d="M2222.56,183.961L2223.34,178.586L2224.88,173.948L2227.17,170.127L2229.49,166.263L2233.32,163.172L2237.95,160.862L2242.55,159.35L2252.54,159.35L2257.14,160.862L2261.78,163.18L2264.84,166.272L2267.9,170.127L2270.21,173.957L2271.76,178.586L2272.53,183.953L2271.76,189.363L2270.21,193.991L2267.9,198.594L2264.84,201.685L2261.78,204.759L2257.14,207.069L2252.54,208.607L2247.17,209.379L2242.55,208.607L2237.95,207.061L2233.32,204.759L2229.49,201.677L2227.17,198.585L2224.88,193.991L2223.34,189.354L2222.56,183.961ZM2086.54,454.957L2095,461.887L2103.44,468.044L2111.91,474.201L2121.11,480.358L2131.13,485.751L2140.34,490.371L2150.32,494.991L2161.07,498.838L2171.08,501.912L2181.84,504.995L2192.59,508.078L2203.35,510.388L2214.13,511.925L2224.88,512.698L2236.41,513.47L2258.7,513.47L2270.22,512.698L2280.97,511.925L2291.73,510.379L2302.51,508.078L2313.27,504.995L2324.02,501.912L2334,498.838L2344.79,494.991L2354.77,490.371L2363.98,485.751L2373.99,480.358L2383.2,474.201L2391.66,468.044L2400.11,461.887L2408.57,454.957L2377.82,421.853L2366.3,431.857L2354,440.333L2340.92,448.027L2327.85,454.957L2314.04,460.341L2300.2,464.961L2284.84,468.044L2269.45,470.354L2269.45,294.049L2313.27,294.049L2313.27,260.946L2269.45,260.946L2269.45,234.772L2277.14,231.689L2284.07,227.078L2290.21,221.685L2295.59,215.528L2299.43,209.371L2302.52,201.668L2304.8,193.21L2304.8,178.577L2304.03,173.167L2302.51,167.027L2300.97,162.39L2297.87,157.023L2295.59,152.395L2291.72,147.792L2288.67,143.936L2284.07,140.072L2279.46,136.989L2274.83,134.705L2270.22,132.386L2264.85,130.068L2259.47,128.531L2253.32,127.758L2241.79,127.758L2235.64,128.531L2230.27,130.076L2224.89,132.395L2220.29,134.705L2215.65,136.989L2211.05,140.08L2206.45,143.936L2203.35,147.8L2199.52,152.395L2197.21,157.032L2194.14,162.399L2192.59,167.036L2191.05,173.176L2190.31,178.577L2190.31,193.21L2192.59,201.668L2195.69,209.371L2199.52,215.528L2204.9,221.685L2211.05,227.078L2217.97,231.689L2225.66,234.78L2225.66,260.946L2181.84,260.946L2181.84,294.049L2225.66,294.049L2225.66,470.345L2210.28,468.035L2194.91,464.953L2181.07,460.333L2167.23,454.948L2153.42,448.018L2141.11,440.324L2128.82,431.849L2117.29,421.845L2086.54,454.957ZM1995.07,260.954L1995.84,248.64L1996.62,235.553L1998.16,223.231L2000.48,210.917L2003.54,199.358L2006.63,187.044L2010.46,175.494L2015.06,163.953L2020.44,153.176L2025.82,142.399L2031.97,132.395L2038.89,121.627L2045.81,112.361L2053.51,102.357L2061.17,93.898L2069.63,84.667L2078.07,76.947L2087.32,69.262L2096.52,61.576L2106.53,54.629L2117.28,47.716L2127.26,42.306L2138.02,36.166L2149.55,31.529L2161.07,26.935L2172.63,23.071L2184.9,19.988L2197.2,16.897L2209.49,14.621L2221.79,13.075L2234.86,12.302L2247.17,11.53L2273.31,13.075L2285.58,14.621L2297.87,16.905L2310.17,19.997L2322.47,23.079L2333.99,26.944L2345.52,31.538L2356.31,36.166L2367.83,42.306L2377.81,47.716L2388.56,54.629L2398.55,61.576L2407.79,69.262L2417,76.947L2425.46,84.676L2433.9,93.898L2441.59,102.357L2449.28,112.361L2456.21,121.627L2463.14,132.395L2469.25,142.399L2474.66,153.176L2480.03,163.953L2484.64,175.494L2488.47,187.044L2491.56,199.358L2494.62,210.917L2496.93,223.231L2498.48,235.553L2499.23,248.64L2500,260.954L2499.23,273.268L2498.48,284.045L2495.39,307.145L2493.07,317.922L2486.96,339.476L2483.09,350.253L2479.26,360.266L2474.66,370.27L2469.25,380.282L2458.5,398.762L2452.35,407.993L2445.45,417.233L2438.53,425.7L2406.24,392.597L2416.22,378.737L2426.24,363.34L2433.9,347.952L2440.82,331.009L2445.45,314.075L2449.28,297.141L2451.58,279.434L2452.35,260.954L2452.35,250.95L2451.58,240.173L2450.06,230.16L2448.51,220.156L2446.19,210.144L2443.14,200.131L2440.04,190.9L2436.21,181.668L2432.38,172.411L2427.75,163.18L2417,146.263L2411.62,138.535L2405.47,130.085L2399.32,123.164L2392.4,115.452L2384.73,108.531L2377.81,102.357L2370.12,96.217L2361.69,90.034L2353.22,84.667L2344.78,80.03L2336.31,75.436L2327.07,70.799L2317.87,67.716L2307.89,63.895L2298.65,61.576L2288.66,59.257L2278.68,56.939L2268.67,56.166L2247.17,54.62L2237.18,55.393L2226.39,56.166L2216.41,56.939L2206.44,59.257L2196.45,61.576L2187.22,63.895L2177.23,67.716L2167.99,70.807L2158.79,75.444L2150.32,80.039L2141.89,84.676L2133.42,90.043L2124.98,96.217L2117.28,102.357L2110.36,108.54L2102.67,115.452L2095.78,123.164L2089.62,130.085L2083.48,138.543L2078.07,146.263L2067.32,163.18L2062.71,172.411L2058.88,181.668L2055.02,190.9L2051.96,200.131L2048.87,210.144L2046.59,220.156L2045.04,230.16L2043.49,240.173L2042.72,250.95L2042.72,260.954L2043.49,279.434L2045.81,297.141L2049.64,314.075L2054.28,331.009L2061.17,347.952L2068.86,363.34L2078.85,378.737L2088.85,392.597L2056.56,425.7L2049.64,417.233L2042.72,407.993L2036.57,398.762L2025.82,380.282L2020.44,370.27L2015.84,360.266L2012.01,350.253L2008.14,339.476L2005.08,328.699L2001.99,317.922L1999.71,307.145L1996.62,284.045L1995.84,273.268L1995.07,260.954Z" style="fill:rgb(0,51,105);fill-rule:nonzero;"/>
    </g>
</svg>
