<?xml version="1.0" encoding="UTF-8" standalone="no"?>
<!DOCTYPE svg PUBLIC "-//W3C//DTD SVG 1.1//EN" "http://www.w3.org/Graphics/SVG/1.1/DTD/svg11.dtd">
<svg width="100%" height="100%" viewBox="0 0 131 28" version="1.1" xmlns="http://www.w3.org/2000/svg" xmlns:xlink="http://www.w3.org/1999/xlink" xml:space="preserve" xmlns:serif="http://www.serif.com/" style="fill-rule:evenodd;clip-rule:evenodd;stroke-linejoin:round;stroke-miterlimit:2;">
    <g id="kuehne-nagel-logo.svg" transform="matrix(0.0688,0,0,0.0688,86,14)">
        <g transform="matrix(1,0,0,1,-1250,-262.5)">
            <path d="M1779.91,340.249L1779.91,184.734L1821.4,184.734L1821.4,304.835L1892.11,304.835L1892.11,340.249L1779.91,340.249ZM1633.13,340.249L1749.16,340.249L1749.16,304.835L1672.3,304.835L1672.3,277.905L1735.32,277.905L1735.32,245.566L1672.31,245.566L1672.31,218.619L1745.33,218.619L1745.33,184.734L1633.12,184.734L1633.13,340.249ZM1455.6,262.491L1456.34,253.26L1457.12,244.785L1458.66,237.09L1460.98,229.388L1464.04,221.693L1467.87,214.764L1471.73,208.607L1476.33,203.222L1481.71,197.812L1487.09,193.218L1494.01,189.354L1500.15,186.271L1507.85,183.214L1515.52,181.668L1523.21,180.123L1532.45,180.123L1544.71,180.896L1550.87,181.668L1557.02,183.214L1562.39,185.498L1567.81,187.817L1572.41,190.135L1577.01,193.218L1581.61,197.048L1585.48,200.912L1589.31,205.524L1592.36,210.144L1594.68,215.536L1597,220.921L1598.51,227.086L1600.06,233.243L1558.57,233.243L1557.02,227.851L1554.73,224.003L1552.41,220.921L1549.35,217.846L1545.49,216.301L1541.66,214.764L1537.05,213.991L1533.19,213.991L1528.59,214.764L1524.76,214.764L1520.89,216.309L1517.06,217.846L1514,220.156L1510.91,222.466L1506.3,227.851L1502.47,235.553L1499.38,243.247L1497.84,252.487L1497.84,272.504L1500.15,281.744L1502.47,290.211L1507.08,297.141L1512.46,303.298L1515.52,305.608L1518.61,307.918L1522.44,309.455L1526.3,310.228L1530.9,311.001L1535.51,311.765L1543.2,310.992L1550.12,309.455L1556.27,307.145L1561.65,304.071L1561.65,284.054L1533.96,284.054L1533.96,253.26L1600.83,253.26L1600.83,323.315L1593.14,328.699L1584.7,333.319L1577.01,337.166L1568.54,340.249L1560.1,342.559L1552.41,344.877L1544.71,345.642L1527.81,345.642L1519.38,344.096L1510.91,342.55L1502.47,340.249L1495.55,337.166L1488.63,333.319L1482.48,328.699L1477.11,324.079L1472.5,317.922L1467.87,311.765L1464.04,304.835L1460.97,297.905L1458.65,289.438L1457.11,280.971L1456.33,271.731L1455.6,262.491ZM1347.23,284.818L1367.19,225.541L1387.18,284.818L1347.23,284.818ZM1285.74,340.249L1328.01,340.249L1335.7,317.149L1397.93,317.149L1406.4,340.249L1448.67,340.249L1389.51,184.734L1344.91,184.734L1285.74,340.249ZM1129.71,340.249L1168.15,340.249L1168.15,247.095L1222.73,340.249L1266.51,340.249L1266.51,184.734L1228.1,184.734L1228.1,276.36L1171.99,184.734L1129.71,184.734L1129.71,340.249ZM954.505,277.897L954.505,257.871L1015.99,257.871L1015.99,194.755L1039.82,194.755L1039.82,257.871L1102.06,257.871L1102.06,277.897L1039.82,277.897L1039.82,340.24L1016,340.24L1016,277.897L954.505,277.897ZM820.029,340.24L936.059,340.24L936.059,304.835L859.204,304.835L859.204,277.905L922.208,277.905L922.208,245.566L859.204,245.566L859.204,218.619L932.221,218.619L932.221,184.734L820.02,184.734L820.029,340.24ZM646.326,340.24L685.51,340.24L685.51,247.103L739.309,340.257L783.13,340.257L783.13,184.734L744.685,184.734L744.685,276.36L688.601,184.734L646.326,184.734L646.326,340.24ZM471.113,340.24L512.615,340.24L512.615,280.207L568.706,280.207L568.706,340.249L609.427,340.249L609.427,184.734L568.706,184.734L568.706,243.247L512.615,243.247L512.615,184.725L471.113,184.725L471.113,340.24ZM324.305,340.24L440.37,340.24L440.37,304.835L363.515,304.835L363.515,277.905L426.528,277.905L426.528,245.566L363.515,245.566L363.515,218.619L436.506,218.619L436.506,184.734L324.305,184.734L324.305,340.24ZM153.703,276.351L153.703,285.591L154.476,294.058L156.777,301.761L159.078,308.682L162.161,314.848L165.235,320.232L169.074,325.625L173.685,330.245L178.297,334.092L183.681,337.166L189.056,339.485L195.205,341.786L201.353,344.104L208.275,344.877L214.415,345.642L228.249,345.642L234.397,344.869L241.318,344.096L247.467,341.786L252.842,339.476L258.991,337.166L264.375,334.092L268.986,330.245L273.589,325.625L277.436,320.232L280.51,314.848L283.585,308.682L285.895,301.761L287.423,294.058L288.969,285.591L288.969,184.725L247.467,184.725L247.467,282.508L246.694,288.665L245.157,294.831L243.62,299.442L240.545,303.298L236.707,306.381L232.86,308.682L227.484,310.228L215.187,310.228L209.803,308.682L205.2,306.381L202.126,303.289L199.043,299.442L196.742,294.831L195.969,288.665L195.205,282.508L195.205,184.734L153.711,184.734L153.703,276.351ZM0,340.249L40.729,340.249L40.729,296.368L54.563,278.661L90.69,340.249L139.105,340.249L82.231,248.64L132.183,184.725L84.533,184.725L40.738,240.173L40.738,184.725L0,184.725L0,340.249Z" style="fill:white;fill-rule:nonzero;"/>
        </g>
    </g>
</svg>
