<?xml version="1.0" encoding="UTF-8" standalone="no"?>
<!DOCTYPE svg PUBLIC "-//W3C//DTD SVG 1.1//EN" "http://www.w3.org/Graphics/SVG/1.1/DTD/svg11.dtd">
<svg width="100%" height="100%" viewBox="0 0 131 28" version="1.1" xmlns="http://www.w3.org/2000/svg" xmlns:xlink="http://www.w3.org/1999/xlink" xml:space="preserve" xmlns:serif="http://www.serif.com/" style="fill-rule:evenodd;clip-rule:evenodd;stroke-linejoin:round;stroke-miterlimit:2;">
    <g transform="matrix(1,0,0,1,-1.42109e-14,-0.108473)">
        <g id="path24184" transform="matrix(0.363585,0,0,0.363585,-169.661,158.155)">
            <path d="M499.511,-429.949L500.844,-429.949C511.951,-429.949 516.838,-424.174 519.059,-407.735L522.169,-408.18L521.724,-433.503L467.079,-433.503L466.635,-408.18L469.745,-407.735C470.189,-413.955 471.078,-417.065 472.411,-420.619C475.076,-426.395 480.407,-429.949 486.627,-429.949L489.293,-429.949L489.293,-373.971C489.293,-368.196 488.849,-365.974 487.516,-364.641C486.183,-363.753 483.962,-363.309 481.74,-363.309L479.075,-363.309L479.075,-359.755L509.285,-359.755L509.285,-363.309L507.064,-363.309C504.398,-363.309 502.176,-363.753 500.844,-364.641C499.511,-365.974 499.511,-368.196 499.511,-373.971L499.511,-429.949Z" style="fill:white;fill-rule:nonzero;"/>
        </g>
        <g id="path24186" transform="matrix(0.363585,0,0,0.363585,-169.661,158.155)">
            <path d="M563.485,-385.522C563.041,-401.96 555.044,-412.178 543.048,-412.178C531.053,-412.178 522.612,-401.072 522.612,-385.522C522.612,-368.64 531.053,-357.978 543.937,-357.978C552.378,-357.978 558.154,-362.42 563.041,-372.194L559.487,-373.971C555.488,-365.53 551.934,-362.42 545.714,-362.42C536.829,-362.42 533.275,-369.084 533.275,-385.522L563.485,-385.522ZM533.275,-389.52C533.275,-401.072 537.273,-408.18 543.493,-408.18C549.713,-408.18 553.267,-401.072 553.267,-389.52L533.275,-389.52Z" style="fill:white;fill-rule:nonzero;"/>
        </g>
        <g id="path24188" transform="matrix(0.363585,0,0,0.363585,-169.661,158.155)">
            <path d="M586.144,-434.392L569.706,-433.503L569.706,-430.393L571.039,-430.393C575.482,-430.393 576.814,-428.616 576.814,-421.508L576.814,-372.194C576.814,-364.641 575.482,-362.864 571.039,-362.864L569.262,-362.864L569.262,-359.755L593.253,-359.755L593.253,-362.864L591.475,-362.864C587.033,-362.864 586.144,-364.641 586.144,-372.194L586.144,-434.392Z" style="fill:white;fill-rule:nonzero;"/>
        </g>
        <g id="path24190" transform="matrix(0.363585,0,0,0.363585,-169.661,158.155)">
            <path d="M639.457,-385.522C639.013,-401.96 631.016,-412.178 619.021,-412.178C607.469,-412.178 599.028,-401.072 599.028,-385.522C599.028,-368.64 607.025,-357.978 619.909,-357.978C628.35,-357.978 634.126,-362.42 639.013,-372.194L635.458,-373.971C631.904,-365.53 627.906,-362.42 621.686,-362.42C613.245,-362.42 609.247,-369.084 609.247,-385.522L639.457,-385.522ZM609.247,-389.52C609.247,-401.072 613.245,-408.18 619.465,-408.18C625.684,-408.18 629.239,-401.072 629.239,-389.52L609.247,-389.52Z" style="fill:white;fill-rule:nonzero;"/>
        </g>
        <g id="path24192" transform="matrix(0.363585,0,0,0.363585,-169.661,158.155)">
            <path d="M696.323,-359.755L696.323,-362.864L695.435,-362.864C691.881,-362.864 690.104,-364.641 686.55,-369.973L673.221,-391.298L685.217,-402.404C690.104,-406.403 691.437,-407.291 694.546,-407.291L695.879,-407.291L695.879,-410.845L673.666,-410.845L673.666,-407.291L675.443,-407.291C678.997,-407.291 680.33,-406.403 680.33,-404.626C680.33,-403.293 678.997,-401.516 677.22,-399.739L662.115,-386.855L662.115,-434.392L645.677,-433.503L645.677,-430.393L647.01,-430.393C651.897,-430.393 652.785,-428.616 652.785,-421.508L652.785,-372.194C652.785,-364.641 651.897,-362.864 647.01,-362.864L645.232,-362.864L645.232,-359.755L669.667,-359.755L669.667,-362.864L667.891,-362.864C663.003,-362.864 662.115,-364.641 662.115,-372.194L662.115,-381.524L666.558,-385.522L682.551,-359.755L696.323,-359.755Z" style="fill:white;fill-rule:nonzero;"/>
        </g>
        <g id="path24194" transform="matrix(0.363585,0,0,0.363585,-169.661,158.155)">
            <path d="M722.533,-412.178C708.761,-412.178 699.876,-401.516 699.876,-385.078C699.876,-369.084 708.761,-357.978 722.089,-357.978C735.861,-357.978 744.747,-369.084 744.747,-385.078C744.747,-401.072 735.861,-412.178 722.533,-412.178ZM722.089,-408.624C726.088,-408.624 729.641,-406.403 731.419,-401.96C733.196,-397.962 734.084,-392.63 734.084,-385.078C734.084,-369.528 730.086,-361.531 722.089,-361.531C714.092,-361.531 710.538,-369.528 710.538,-385.522C710.538,-392.63 711.426,-397.962 713.204,-401.96C714.981,-405.959 718.535,-408.624 722.089,-408.624Z" style="fill:white;fill-rule:nonzero;"/>
        </g>
        <g id="path24196" transform="matrix(0.363585,0,0,0.363585,-169.661,158.155)">
            <path d="M810.942,-359.755L826.936,-359.755L826.936,-362.864L825.603,-362.864C821.161,-362.864 820.272,-364.641 820.272,-372.194L820.272,-392.186C820.272,-398.85 819.384,-402.849 817.162,-405.959C814.941,-409.513 810.942,-411.734 806.055,-411.734C799.836,-411.734 795.393,-408.624 792.283,-401.516C789.618,-408.624 785.619,-411.734 779.399,-411.734C773.624,-411.734 768.293,-408.18 766.516,-402.404L766.516,-411.29L750.966,-410.845L750.966,-407.291L751.855,-407.291C756.742,-407.291 757.63,-405.514 757.63,-398.406L757.63,-372.194C757.63,-364.641 756.742,-362.864 751.855,-362.864L750.078,-362.864L750.078,-359.755L774.068,-359.755L774.068,-362.864L772.735,-362.864C767.848,-362.864 766.96,-364.641 766.96,-372.194L766.96,-385.966C766.96,-394.407 767.404,-397.962 769.181,-401.516C770.958,-405.07 773.624,-406.847 776.734,-406.847C779.399,-406.847 781.621,-405.514 782.509,-403.293C783.842,-400.627 784.286,-398.406 784.286,-389.076L784.286,-359.755L800.724,-359.755L800.724,-362.864L799.391,-362.864C794.505,-362.864 793.616,-364.641 793.616,-372.194L793.616,-385.966C793.616,-395.296 794.06,-397.962 795.837,-401.516C797.615,-405.07 800.724,-406.847 803.834,-406.847C806.055,-406.847 808.277,-405.959 809.165,-403.737C810.498,-401.516 810.942,-397.962 810.942,-390.853L810.942,-359.755Z" style="fill:white;fill-rule:nonzero;"/>
        </g>
    </g>
</svg>
